<svg width="36" height="36" viewBox="0 0 36 36" fill="none" xmlns="http://www.w3.org/2000/svg">
<mask id="mask0_134_140" style="mask-type:alpha" maskUnits="userSpaceOnUse" x="0" y="0" width="36" height="36">
<rect width="36" height="36" fill="#D9D9D9"/>
</mask>
<g mask="url(#mask0_134_140)">
<path d="M11.5125 31.7438C9.8375 30.9062 9 29.825 9 28.5C9 27.9 9.18125 27.3438 9.54375 26.8312C9.90625 26.3188 10.4125 25.875 11.0625 25.5L13.425 27.7125C13.2 27.8125 12.9563 27.925 12.6938 28.05C12.4313 28.175 12.225 28.325 12.075 28.5C12.4 28.9 13.15 29.25 14.325 29.55C15.5 29.85 16.725 30 18 30C19.275 30 20.5063 29.85 21.6938 29.55C22.8813 29.25 23.6375 28.9 23.9625 28.5C23.7875 28.3 23.5625 28.1375 23.2875 28.0125C23.0125 27.8875 22.75 27.775 22.5 27.675L24.825 25.425C25.525 25.825 26.0625 26.2812 26.4375 26.7938C26.8125 27.3062 27 27.875 27 28.5C27 29.825 26.1625 30.9062 24.4875 31.7438C22.8125 32.5813 20.65 33 18 33C15.35 33 13.1875 32.5813 11.5125 31.7438ZM18.0375 24.75C20.5125 22.925 22.375 21.0938 23.625 19.2563C24.875 17.4188 25.5 15.575 25.5 13.725C25.5 11.175 24.6875 9.25 23.0625 7.95C21.4375 6.65 19.75 6 18 6C16.25 6 14.5625 6.65 12.9375 7.95C11.3125 9.25 10.5 11.175 10.5 13.725C10.5 15.4 11.1125 17.1437 12.3375 18.9562C13.5625 20.7687 15.4625 22.7 18.0375 24.75ZM18 28.5C14.475 25.9 11.8438 23.375 10.1063 20.925C8.36875 18.475 7.5 16.075 7.5 13.725C7.5 11.95 7.81875 10.3937 8.45625 9.05625C9.09375 7.71875 9.9125 6.6 10.9125 5.7C11.9125 4.8 13.0375 4.125 14.2875 3.675C15.5375 3.225 16.775 3 18 3C19.225 3 20.4625 3.225 21.7125 3.675C22.9625 4.125 24.0875 4.8 25.0875 5.7C26.0875 6.6 26.9062 7.71875 27.5438 9.05625C28.1812 10.3937 28.5 11.95 28.5 13.725C28.5 16.075 27.6313 18.475 25.8937 20.925C24.1562 23.375 21.525 25.9 18 28.5ZM18 16.5C18.825 16.5 19.5313 16.2063 20.1188 15.6188C20.7063 15.0313 21 14.325 21 13.5C21 12.675 20.7063 11.9688 20.1188 11.3813C19.5313 10.7938 18.825 10.5 18 10.5C17.175 10.5 16.4688 10.7938 15.8813 11.3813C15.2938 11.9688 15 12.675 15 13.5C15 14.325 15.2938 15.0313 15.8813 15.6188C16.4688 16.2063 17.175 16.5 18 16.5Z" fill="black"/>
</g>
</svg>
