<svg width="36" height="36" viewBox="0 0 36 36" fill="none" xmlns="http://www.w3.org/2000/svg">
<mask id="mask0_134_145" style="mask-type:alpha" maskUnits="userSpaceOnUse" x="0" y="0" width="36" height="36">
<rect width="36" height="36" fill="#D9D9D9"/>
</mask>
<g mask="url(#mask0_134_145)">
<path d="M12.9375 31.5C10.5875 31.5 8.59375 30.6813 6.95625 29.0438C5.31875 27.4063 4.5 25.4125 4.5 23.0625C4.5 21.9375 4.7125 20.8625 5.1375 19.8375C5.5625 18.8125 6.175 17.9 6.975 17.1L17.1 6.975C17.9 6.175 18.8125 5.5625 19.8375 5.1375C20.8625 4.7125 21.9375 4.5 23.0625 4.5C25.4125 4.5 27.4063 5.31875 29.0438 6.95625C30.6813 8.59375 31.5 10.5875 31.5 12.9375C31.5 14.0625 31.2875 15.1375 30.8625 16.1625C30.4375 17.1875 29.825 18.1 29.025 18.9L18.9 29.025C18.1 29.825 17.1875 30.4375 16.1625 30.8625C15.1375 31.2875 14.0625 31.5 12.9375 31.5ZM22.9125 20.775L26.925 16.8C27.425 16.3 27.8125 15.7125 28.0875 15.0375C28.3625 14.3625 28.5 13.6625 28.5 12.9375C28.5 11.4375 27.9688 10.1562 26.9062 9.09375C25.8438 8.03125 24.5625 7.5 23.0625 7.5C22.3375 7.5 21.6375 7.6375 20.9625 7.9125C20.2875 8.1875 19.7 8.575 19.2 9.075L15.225 13.0875L22.9125 20.775ZM12.9375 28.5C13.6625 28.5 14.3625 28.3625 15.0375 28.0875C15.7125 27.8125 16.3 27.425 16.8 26.925L20.775 22.9125L13.0875 15.225L9.075 19.2C8.575 19.7 8.1875 20.2875 7.9125 20.9625C7.6375 21.6375 7.5 22.3375 7.5 23.0625C7.5 24.5625 8.03125 25.8438 9.09375 26.9062C10.1562 27.9688 11.4375 28.5 12.9375 28.5Z" fill="#777777"/>
</g>
</svg>
